<?xml version="1.0" encoding="UTF-8" standalone="no"?>
<!-- Generator: Gravit.io -->

<svg
   style="isolation:isolate"
   viewBox="0 0 484.99999 484.99998"
   width="485pt"
   height="485pt"
   version="1.1"
   id="svg39"
   sodipodi:docname="Flag_of_Occitania.svg"
   inkscape:version="1.1.2 (b8e25be833, 2022-02-05)"
   xmlns:inkscape="http://www.inkscape.org/namespaces/inkscape"
   xmlns:sodipodi="http://sodipodi.sourceforge.net/DTD/sodipodi-0.dtd"
   xmlns="http://www.w3.org/2000/svg"
   xmlns:svg="http://www.w3.org/2000/svg">
  <sodipodi:namedview
     id="namedview41"
     pagecolor="#ffffff"
     bordercolor="#666666"
     borderopacity="1.0"
     inkscape:pageshadow="2"
     inkscape:pageopacity="0.0"
     inkscape:pagecheckerboard="0"
     inkscape:document-units="pt"
     showgrid="false"
     width="500pt"
     inkscape:zoom="1.0047496"
     inkscape:cx="193.58057"
     inkscape:cy="354.31714"
     inkscape:window-width="1920"
     inkscape:window-height="1137"
     inkscape:window-x="-1928"
     inkscape:window-y="-361"
     inkscape:window-maximized="1"
     inkscape:current-layer="svg39" />
  <defs
     id="defs5">
    <clipPath
       id="_clipPath_JZyFg5ObOTyVdDp8xrzlx3y82FNxIukZ">
      <rect
         width="797.96002"
         height="530.97302"
         id="rect2"
         x="0"
         y="0" />
    </clipPath>
  </defs>
  <g
     clip-path="url(#_clipPath_JZyFg5ObOTyVdDp8xrzlx3y82FNxIukZ)"
     id="g37"
     transform="translate(-156.75548,-24.633003)">
    <!--rect x="0" y="0" width="797.96" height="530.973" transform="matrix(1,0,0,1,0,0)" fill="rgb(212,0,28)"/-->
    <g
       id="g35">
      <g
         id="g33">
        <path
           d="m 183.175,267 9.125,7.138 c 14.633,11.443 38.502,35.909 45.015,77.3 l 1.722,10.924 8.36,-7.312 c 14.038,-12.277 55.754,-44.434 116.757,-53.224 -8.792,61.003 -40.948,102.718 -53.224,116.756 l -7.312,8.361 10.924,1.721 c 41.392,6.515 65.857,30.383 77.301,45.015 l 7.137,9.126 7.138,-9.126 c 11.442,-14.632 35.907,-38.5 77.299,-45.015 l 10.924,-1.721 -7.312,-8.361 c -12.276,-14.038 -44.432,-55.753 -53.224,-116.756 61.003,8.79 102.719,40.947 116.756,53.224 l 8.361,7.312 1.721,-10.924 c 6.514,-41.391 30.383,-65.857 45.014,-77.3 l 9.127,-7.138 -9.127,-7.138 c -14.631,-11.443 -38.5,-35.908 -45.014,-77.299 l -1.721,-10.925 -8.361,7.312 c -14.037,12.277 -55.753,44.434 -116.756,53.225 8.792,-61.003 40.948,-102.719 53.224,-116.756 l 7.312,-8.362 -10.924,-1.72 C 442.025,98.821 417.56,74.953 406.118,60.321 l -7.138,-9.126 -7.137,9.126 c -11.444,14.632 -35.909,38.5 -77.301,45.016 l -10.924,1.72 7.312,8.362 c 12.276,14.037 44.432,55.753 53.224,116.756 -61.003,-8.791 -102.719,-40.948 -116.757,-53.225 l -8.36,-7.312 -1.722,10.925 c -6.513,41.391 -30.382,65.856 -45.015,77.299 z m 35.125,0 c 27.829,-25.798 34.256,-54.425 34.256,-54.425 40.625,34.242 103.986,41.96 135.664,43.666 -1.707,-31.679 -9.424,-95.039 -43.665,-135.666 0,0 28.625,-6.425 54.425,-34.255 25.799,27.83 54.424,34.255 54.424,34.255 -34.241,40.627 -41.958,103.987 -43.665,135.666 31.678,-1.706 95.039,-9.424 135.665,-43.666 0,0 6.425,28.627 34.255,54.425 -27.83,25.799 -34.255,54.425 -34.255,54.425 -40.626,-34.242 -103.987,-41.96 -135.665,-43.666 1.707,31.679 9.424,95.039 43.665,135.666 0,0 -28.625,6.425 -54.424,34.255 -25.8,-27.83 -54.425,-34.255 -54.425,-34.255 34.241,-40.627 41.958,-103.987 43.665,-135.666 -31.678,1.706 -95.039,9.424 -135.664,43.666 0,0 -6.427,-28.626 -34.256,-54.425 z"
           fill="#fddd00"
           id="path7" />
        <circle
           vector-effect="non-scaling-stroke"
           cx="175.7545"
           cy="267"
           r="18"
           fill="#fddd00"
           id="circle9" />
        <circle
           vector-effect="non-scaling-stroke"
           cx="236.5545"
           cy="164.576"
           r="18"
           fill="#fddd00"
           id="circle11" />
        <circle
           vector-effect="non-scaling-stroke"
           cx="236.5545"
           cy="369.42499"
           r="18"
           fill="#fddd00"
           id="circle13" />
        <circle
           vector-effect="non-scaling-stroke"
           cx="296.55551"
           cy="104.575"
           r="18"
           fill="#fddd00"
           id="circle15" />
        <circle
           vector-effect="non-scaling-stroke"
           cx="296.55551"
           cy="429.42599"
           r="18"
           fill="#fddd00"
           id="circle17" />
        <circle
           vector-effect="non-scaling-stroke"
           cx="398.97949"
           cy="43.774399"
           r="18"
           fill="#fddd00"
           id="circle19" />
        <circle
           vector-effect="non-scaling-stroke"
           cx="398.97949"
           cy="490.22601"
           r="18"
           fill="#fddd00"
           id="circle21" />
        <circle
           vector-effect="non-scaling-stroke"
           cx="501.4035"
           cy="104.575"
           r="18"
           fill="#fddd00"
           id="circle23" />
        <circle
           vector-effect="non-scaling-stroke"
           cx="501.4035"
           cy="429.42599"
           r="18"
           fill="#fddd00"
           id="circle25" />
        <circle
           vector-effect="non-scaling-stroke"
           cx="561.40448"
           cy="164.576"
           r="18"
           fill="#fddd00"
           id="circle27" />
        <circle
           vector-effect="non-scaling-stroke"
           cx="561.40448"
           cy="369.42499"
           r="18"
           fill="#fddd00"
           id="circle29" />
        <circle
           vector-effect="non-scaling-stroke"
           cx="622.20551"
           cy="267"
           r="18"
           fill="#fddd00"
           id="circle31" />
      </g>
    </g>
  </g>
</svg>
